<svg width="66" height="66" viewBox="0 0 66 66" fill="none" xmlns="http://www.w3.org/2000/svg">
<path d="M60.6487 64.2163H5.35138C4.4052 64.2163 3.49778 63.8404 2.82873 63.1713C2.15968 62.5023 1.78381 61.5949 1.78381 60.6487V21.4054C1.78381 21.1689 1.87778 20.942 2.04504 20.7748C2.2123 20.6075 2.43916 20.5135 2.67571 20.5135H63.3243C63.5609 20.5135 63.7878 20.6075 63.955 20.7748C64.1223 20.942 64.2162 21.1689 64.2162 21.4054V60.6487C64.2162 61.5949 63.8404 62.5023 63.1713 63.1713C62.5023 63.8404 61.5949 64.2163 60.6487 64.2163ZM3.5676 22.2973V60.6487C3.5676 61.1218 3.75553 61.5755 4.09006 61.91C4.42458 62.2445 4.87829 62.4325 5.35138 62.4325H60.6487C61.1218 62.4325 61.5755 62.2445 61.91 61.91C62.2445 61.5755 62.4325 61.1218 62.4325 60.6487V22.2973H3.5676Z" fill="#0B23F4"/>
<path d="M63.3243 22.2973H2.67571C2.43916 22.2973 2.2123 22.2034 2.04504 22.0361C1.87778 21.8689 1.78381 21.642 1.78381 21.4055V10.9257C1.78381 9.97954 2.15968 9.07212 2.82873 8.40307C3.49778 7.73402 4.4052 7.35815 5.35138 7.35815H13.3784C13.615 7.35815 13.8418 7.45212 14.0091 7.61938C14.1763 7.78665 14.2703 8.0135 14.2703 8.25005C14.2703 8.48659 14.1763 8.71345 14.0091 8.88071C13.8418 9.04797 13.615 9.14194 13.3784 9.14194H5.35138C4.87829 9.14194 4.42458 9.32987 4.09006 9.6644C3.75553 9.99892 3.5676 10.4526 3.5676 10.9257V20.5136H62.4325V10.9257C62.4325 10.4526 62.2445 9.99892 61.91 9.6644C61.5755 9.32987 61.1218 9.14194 60.6487 9.14194H52.6216C52.3851 9.14194 52.1582 9.04797 51.991 8.88071C51.8237 8.71345 51.7298 8.48659 51.7298 8.25005C51.7298 8.0135 51.8237 7.78665 51.991 7.61938C52.1582 7.45212 52.3851 7.35815 52.6216 7.35815H60.6487C61.5949 7.35815 62.5023 7.73402 63.1713 8.40307C63.8404 9.07212 64.2162 9.97954 64.2162 10.9257V21.4055C64.2162 21.642 64.1223 21.8689 63.955 22.0361C63.7878 22.2034 63.5609 22.2973 63.3243 22.2973Z" fill="#0B23F4"/>
<path d="M46.3783 9.14194H19.6216C19.385 9.14194 19.1582 9.04797 18.9909 8.88071C18.8236 8.71345 18.7297 8.48659 18.7297 8.25005C18.7297 8.0135 18.8236 7.78665 18.9909 7.61938C19.1582 7.45212 19.385 7.35815 19.6216 7.35815H46.3783C46.6149 7.35815 46.8417 7.45212 47.009 7.61938C47.1763 7.78665 47.2702 8.0135 47.2702 8.25005C47.2702 8.48659 47.1763 8.71345 47.009 8.88071C46.8417 9.04797 46.6149 9.14194 46.3783 9.14194Z" fill="#0B23F4"/>
<path d="M49.5 14.7161C48.4363 14.7138 47.4168 14.2902 46.6646 13.538C45.9125 12.7858 45.4889 11.7663 45.4865 10.7026V5.79721C45.4865 4.73276 45.9094 3.7119 46.662 2.95922C47.4147 2.20654 48.4356 1.78369 49.5 1.78369C50.5645 1.78369 51.5853 2.20654 52.338 2.95922C53.0907 3.7119 53.5135 4.73276 53.5135 5.79721V10.7026C53.5112 11.7663 53.0876 12.7858 52.3354 13.538C51.5832 14.2902 50.5638 14.7138 49.5 14.7161ZM49.5 3.56748C48.9087 3.56748 48.3415 3.80239 47.9234 4.22055C47.5052 4.6387 47.2703 5.20584 47.2703 5.79721V10.7026C47.2703 11.294 47.5052 11.8611 47.9234 12.2793C48.3415 12.6974 48.9087 12.9323 49.5 12.9323C50.0914 12.9323 50.6585 12.6974 51.0767 12.2793C51.4948 11.8611 51.7298 11.294 51.7298 10.7026V5.79721C51.7298 5.20584 51.4948 4.6387 51.0767 4.22055C50.6585 3.80239 50.0914 3.56748 49.5 3.56748Z" fill="#0B23F4"/>
<path d="M16.5 14.7161C15.4363 14.7138 14.4168 14.2902 13.6646 13.538C12.9125 12.7858 12.4889 11.7663 12.4865 10.7026V5.79721C12.4865 4.73276 12.9094 3.7119 13.662 2.95922C14.4147 2.20654 15.4356 1.78369 16.5 1.78369C17.5645 1.78369 18.5853 2.20654 19.338 2.95922C20.0907 3.7119 20.5135 4.73276 20.5135 5.79721V10.7026C20.5112 11.7663 20.0876 12.7858 19.3354 13.538C18.5832 14.2902 17.5638 14.7138 16.5 14.7161ZM16.5 3.56748C15.9087 3.56748 15.3415 3.80239 14.9234 4.22055C14.5052 4.6387 14.2703 5.20584 14.2703 5.79721V10.7026C14.2703 11.294 14.5052 11.8611 14.9234 12.2793C15.3415 12.6974 15.9087 12.9323 16.5 12.9323C17.0914 12.9323 17.6585 12.6974 18.0767 12.2793C18.4948 11.8611 18.7298 11.294 18.7298 10.7026V5.79721C18.7298 5.20584 18.4948 4.6387 18.0767 4.22055C17.6585 3.80239 17.0914 3.56748 16.5 3.56748Z" fill="#0B23F4"/>
<path d="M47.6003 64.2163C47.3637 64.2163 47.1369 64.1223 46.9696 63.955C46.8023 63.7878 46.7084 63.5609 46.7084 63.3244V21.4054C46.7084 21.1689 46.8023 20.942 46.9696 20.7748C47.1369 20.6075 47.3637 20.5135 47.6003 20.5135C47.8368 20.5135 48.0637 20.6075 48.2309 20.7748C48.3982 20.942 48.4922 21.1689 48.4922 21.4054V63.3244C48.4922 63.5609 48.3982 63.7878 48.2309 63.955C48.0637 64.1223 47.8368 64.2163 47.6003 64.2163Z" fill="#0B23F4"/>
<path d="M33 64.2163C32.7634 64.2163 32.5366 64.1223 32.3693 63.955C32.2021 63.7878 32.1081 63.5609 32.1081 63.3244V21.4054C32.1081 21.1689 32.2021 20.942 32.3693 20.7748C32.5366 20.6075 32.7634 20.5135 33 20.5135C33.2365 20.5135 33.4634 20.6075 33.6306 20.7748C33.7979 20.942 33.8919 21.1689 33.8919 21.4054V63.3244C33.8919 63.5609 33.7979 63.7878 33.6306 63.955C33.4634 64.1223 33.2365 64.2163 33 64.2163Z" fill="#0B23F4"/>
<path d="M18.3997 64.2163C18.1632 64.2163 17.9363 64.1223 17.769 63.955C17.6018 63.7878 17.5078 63.5609 17.5078 63.3244V21.4054C17.5078 21.1689 17.6018 20.942 17.769 20.7748C17.9363 20.6075 18.1632 20.5135 18.3997 20.5135C18.6362 20.5135 18.8631 20.6075 19.0304 20.7748C19.1976 20.942 19.2916 21.1689 19.2916 21.4054V63.3244C19.2916 63.5609 19.1976 63.7878 19.0304 63.955C18.8631 64.1223 18.6362 64.2163 18.3997 64.2163Z" fill="#0B23F4"/>
<path d="M63.3243 50.5525H2.67571C2.43916 50.5525 2.2123 50.4585 2.04504 50.2912C1.87778 50.124 1.78381 49.8971 1.78381 49.6606C1.78381 49.424 1.87778 49.1972 2.04504 49.0299C2.2123 48.8626 2.43916 48.7687 2.67571 48.7687H63.3243C63.5609 48.7687 63.7878 48.8626 63.955 49.0299C64.1223 49.1972 64.2162 49.424 64.2162 49.6606C64.2162 49.8971 64.1223 50.124 63.955 50.2912C63.7878 50.4585 63.5609 50.5525 63.3243 50.5525Z" fill="#0B23F4"/>
<path d="M63.3243 35.961H2.67571C2.43916 35.961 2.2123 35.8671 2.04504 35.6998C1.87778 35.5325 1.78381 35.3057 1.78381 35.0691C1.78381 34.8326 1.87778 34.6057 2.04504 34.4385C2.2123 34.2712 2.43916 34.1772 2.67571 34.1772H63.3243C63.5609 34.1772 63.7878 34.2712 63.955 34.4385C64.1223 34.6057 64.2162 34.8326 64.2162 35.0691C64.2162 35.3057 64.1223 35.5325 63.955 35.6998C63.7878 35.8671 63.5609 35.961 63.3243 35.961Z" fill="#0B23F4"/>
<path d="M38.8507 31.1626C38.6154 31.1593 38.391 31.0631 38.2263 30.895L36.8261 29.5037C36.66 29.3366 36.5667 29.1105 36.5667 28.8749C36.5667 28.6393 36.66 28.4132 36.8261 28.2461C36.909 28.1625 37.0076 28.0962 37.1163 28.0509C37.225 28.0056 37.3416 27.9823 37.4593 27.9823C37.5771 27.9823 37.6936 28.0056 37.8023 28.0509C37.911 28.0962 38.0096 28.1625 38.0926 28.2461L38.8507 29.0042L42.2042 25.6507C42.2873 25.5676 42.3861 25.5016 42.4947 25.4566C42.6034 25.4116 42.7198 25.3884 42.8374 25.3884C42.955 25.3884 43.0715 25.4116 43.1801 25.4566C43.2888 25.5016 43.3875 25.5676 43.4707 25.6507C43.5538 25.7339 43.6198 25.8326 43.6648 25.9413C43.7098 26.0499 43.733 26.1664 43.733 26.284C43.733 26.4016 43.7098 26.518 43.6648 26.6267C43.6198 26.7353 43.5538 26.8341 43.4707 26.9172L39.4839 30.895C39.4013 30.9793 39.3028 31.0464 39.1941 31.0923C39.0854 31.1382 38.9687 31.1621 38.8507 31.1626Z" fill="#0B23F4"/>
<path d="M24.9729 31.1626C24.8549 31.1621 24.7382 31.1382 24.6295 31.0923C24.5208 31.0464 24.4223 30.9793 24.3397 30.895L22.9484 29.5037C22.855 29.4237 22.7792 29.3254 22.7256 29.2147C22.6721 29.104 22.642 28.9835 22.6373 28.8607C22.6325 28.7379 22.6532 28.6154 22.6981 28.5009C22.7429 28.3865 22.8109 28.2825 22.8978 28.1956C22.9847 28.1087 23.0887 28.0407 23.2031 27.9958C23.3176 27.951 23.4401 27.9303 23.5629 27.935C23.6857 27.9398 23.8063 27.9699 23.9169 28.0234C24.0276 28.0769 24.126 28.1528 24.2059 28.2461L24.9729 29.0042L28.3265 25.6507C28.4096 25.5676 28.5083 25.5016 28.617 25.4566C28.7256 25.4116 28.8421 25.3884 28.9597 25.3884C29.0773 25.3884 29.1938 25.4116 29.3024 25.4566C29.4111 25.5016 29.5098 25.5676 29.5929 25.6507C29.6761 25.7339 29.7421 25.8326 29.7871 25.9413C29.8321 26.0499 29.8552 26.1664 29.8552 26.284C29.8552 26.4016 29.8321 26.518 29.7871 26.6267C29.7421 26.7353 29.6761 26.8341 29.5929 26.9172L25.6062 30.895C25.5236 30.9793 25.4251 31.0464 25.3164 31.0923C25.2077 31.1382 25.091 31.1621 24.9729 31.1626Z" fill="#0B23F4"/>
<path d="M11.0594 31.1626C10.9414 31.1621 10.8246 31.1382 10.7159 31.0923C10.6072 31.0464 10.5087 30.9793 10.4261 30.895L9.03477 29.5037C8.88866 29.3331 8.81231 29.1136 8.82098 28.8891C8.82965 28.6647 8.9227 28.4517 9.08154 28.2929C9.24038 28.134 9.45331 28.041 9.67778 28.0323C9.90225 28.0237 10.1217 28.1 10.2923 28.2461L11.0594 29.0042L14.4129 25.6507C14.58 25.4846 14.806 25.3914 15.0417 25.3914C15.2773 25.3914 15.5033 25.4846 15.6704 25.6507C15.754 25.7336 15.8204 25.8323 15.8657 25.941C15.911 26.0496 15.9343 26.1662 15.9343 26.284C15.9343 26.4017 15.911 26.5183 15.8657 26.627C15.8204 26.7356 15.754 26.8343 15.6704 26.9172L11.6837 30.895C11.519 31.0631 11.2946 31.1593 11.0594 31.1626Z" fill="#0B23F4"/>
<path d="M9.50754 45.6916C9.39016 45.6923 9.27381 45.6698 9.16514 45.6254C9.05647 45.581 8.95764 45.5156 8.8743 45.4329L6.84079 43.3994C6.75719 43.3165 6.69084 43.2179 6.64556 43.1092C6.60028 43.0005 6.57697 42.8839 6.57697 42.7662C6.57697 42.6484 6.60028 42.5319 6.64556 42.4232C6.69084 42.3145 6.75719 42.2158 6.84079 42.1329C7.00789 41.9668 7.23394 41.8736 7.46957 41.8736C7.70519 41.8736 7.93125 41.9668 8.09835 42.1329L9.50754 43.5421L13.86 39.1808C14.0279 39.0081 14.2576 38.9092 14.4984 38.9058C14.7393 38.9025 14.9716 38.995 15.1443 39.1629C15.317 39.3309 15.4159 39.5605 15.4192 39.8014C15.4226 40.0422 15.3301 40.2746 15.1621 40.4472L10.1675 45.4329C10.0811 45.5189 9.97786 45.5861 9.86434 45.6306C9.75082 45.6751 9.62939 45.6959 9.50754 45.6916Z" fill="#0B23F4"/>
<path d="M38.6723 45.6916C38.555 45.6922 38.4386 45.6697 38.3299 45.6253C38.2213 45.581 38.1224 45.5156 38.0391 45.4329L36.0056 43.3994C35.9224 43.3162 35.8565 43.2175 35.8115 43.1089C35.7664 43.0002 35.7433 42.8838 35.7433 42.7661C35.7433 42.6485 35.7664 42.5321 35.8115 42.4234C35.8565 42.3148 35.9224 42.2161 36.0056 42.1329C36.0887 42.0497 36.1875 41.9838 36.2961 41.9388C36.4048 41.8938 36.5212 41.8706 36.6388 41.8706C36.7564 41.8706 36.8729 41.8938 36.9815 41.9388C37.0902 41.9838 37.1889 42.0497 37.2721 42.1329L38.6723 43.5421L43.0337 39.1807C43.2008 39.0146 43.4269 38.9214 43.6625 38.9214C43.8981 38.9214 44.1242 39.0146 44.2913 39.1807C44.3749 39.2637 44.4412 39.3623 44.4865 39.471C44.5318 39.5797 44.5551 39.6962 44.5551 39.814C44.5551 39.9317 44.5318 40.0483 44.4865 40.157C44.4412 40.2657 44.3749 40.3643 44.2913 40.4472L39.3056 45.4329C39.2222 45.5156 39.1234 45.581 39.0147 45.6253C38.9061 45.6697 38.7897 45.6922 38.6723 45.6916Z" fill="#0B23F4"/>
<path d="M54.2806 45.6916C54.1632 45.6922 54.0469 45.6697 53.9382 45.6253C53.8295 45.581 53.7307 45.5156 53.6474 45.4329L51.6139 43.3994C51.4459 43.2314 51.3516 43.0037 51.3516 42.7661C51.3516 42.5286 51.4459 42.3009 51.6139 42.1329C51.7818 41.965 52.0096 41.8706 52.2471 41.8706C52.4846 41.8706 52.7124 41.965 52.8803 42.1329L54.2806 43.5421L58.642 39.1807C58.8091 39.0146 59.0351 38.9214 59.2708 38.9214C59.5064 38.9214 59.7324 39.0146 59.8995 39.1807C59.9831 39.2637 60.0495 39.3623 60.0948 39.471C60.14 39.5797 60.1634 39.6962 60.1634 39.814C60.1634 39.9317 60.14 40.0483 60.0948 40.157C60.0495 40.2657 59.9831 40.3643 59.8995 40.4472L54.9139 45.4329C54.8305 45.5156 54.7317 45.581 54.623 45.6253C54.5144 45.6697 54.398 45.6922 54.2806 45.6916Z" fill="#0B23F4"/>
<path d="M24.741 59.2573C24.507 59.2563 24.2828 59.1634 24.1167 58.9987L22.1099 57.0008C21.9419 56.8329 21.8476 56.6051 21.8476 56.3676C21.8476 56.1301 21.9419 55.9023 22.1099 55.7343C22.2778 55.5664 22.5056 55.472 22.7431 55.472C22.9806 55.472 23.2084 55.5664 23.3764 55.7343L24.741 57.0811L28.7991 53.023C28.882 52.9394 28.9806 52.873 29.0893 52.8277C29.198 52.7825 29.3146 52.7592 29.4323 52.7592C29.5501 52.7592 29.6666 52.7825 29.7753 52.8277C29.884 52.873 29.9827 52.9394 30.0656 53.023C30.2317 53.1901 30.3249 53.4161 30.3249 53.6518C30.3249 53.8874 30.2317 54.1134 30.0656 54.2805L25.3742 58.9719C25.2931 59.0594 25.1953 59.1298 25.0865 59.1788C24.9778 59.2278 24.8602 59.2545 24.741 59.2573Z" fill="#0B23F4"/>
</svg>
