<svg width="66" height="66" viewBox="0 0 66 66" fill="none" xmlns="http://www.w3.org/2000/svg">
<g clip-path="url(#clip0_2009_1236)">
<path d="M65.8796 7.91525C65.7119 7.48111 65.2992 7.1907 64.8338 7.1796L58.9739 7.03849L59.1139 1.17853C59.125 0.713126 58.8548 0.28716 58.4291 0.0988643C58.0037 -0.0897235 57.5066 -0.00309875 57.1696 0.318129L50.6811 6.50267C50.5073 6.66847 50.3895 6.88437 50.3447 7.12044L48.7105 15.7046L47.9513 16.4638C42.8593 11.7627 36.0595 8.88595 28.5994 8.88595C12.8531 8.88595 0.042572 21.6965 0.042572 37.4428C0.042572 53.189 12.8531 65.9996 28.5994 65.9996C44.3455 65.9996 57.1561 53.189 57.1561 37.4428C57.1561 29.9828 54.2793 23.1828 49.5786 18.0908L50.3441 17.3254L58.5488 15.6417C58.7601 15.5983 58.9552 15.4963 59.1113 15.3475L65.5998 9.16291C65.9369 8.84169 66.0473 8.3494 65.8796 7.91525ZM54.8549 37.4428C54.8549 51.9202 43.0767 63.6984 28.5994 63.6984C14.1219 63.6984 2.34375 51.9202 2.34375 37.4428C2.34375 22.9655 14.1219 11.1873 28.5994 11.1873C35.4249 11.1873 41.6498 13.8062 46.324 18.0908L40.2896 24.1252C37.1665 21.3804 33.0744 19.7132 28.5995 19.7132C18.8235 19.7132 10.8701 27.6666 10.8701 37.4426C10.8701 47.2186 18.8235 55.1721 28.5995 55.1721C38.3756 55.1721 46.3288 47.2188 46.3288 37.4428C46.3288 32.9679 44.6616 28.8757 41.9168 25.7527L47.9512 19.7183C52.236 24.3924 54.8549 30.6172 54.8549 37.4428ZM29.413 38.2564L32.5615 35.108C32.9667 35.7929 33.2001 36.5908 33.2001 37.4426C33.2001 39.9796 31.1362 42.0435 28.5994 42.0435C26.0624 42.0435 23.9985 39.9796 23.9985 37.4426C23.9985 34.9058 26.0624 32.8419 28.5994 32.8419C29.4512 32.8419 30.2492 33.0754 30.934 33.4805L27.7856 36.629L29.413 38.2564ZM32.5948 31.8199C31.4663 31.0156 30.0876 30.5405 28.5994 30.5405C24.7934 30.5405 21.6972 33.6368 21.6972 37.4426C21.6972 41.2486 24.7934 44.3448 28.5994 44.3448C32.4052 44.3448 35.5015 41.2486 35.5015 37.4426C35.5015 35.9544 35.0264 34.5758 34.2221 33.4472L40.2869 27.3825C42.6168 30.0855 44.0275 33.6023 44.0275 37.4426C44.0275 45.9498 37.1064 52.8707 28.5994 52.8707C20.0922 52.8707 13.1713 45.9497 13.1713 37.4426C13.1713 28.9354 20.0923 22.0145 28.5994 22.0145C32.4397 22.0145 35.9565 23.4252 38.6595 25.7551L32.5948 31.8199ZM57.7627 13.4535L51.2263 14.795L52.5362 7.91321L56.7467 3.89998L56.6457 8.13335C56.6305 8.76865 57.1331 9.29599 57.7684 9.31118L62.0018 9.41315L57.7627 13.4535Z" fill="#0B23F4"/>
</g>
<defs>
<clipPath id="clip0_2009_1236">
<rect width="65.9996" height="65.9996" fill="white"/>
</clipPath>
</defs>
</svg>
